# Blender v2.79 (sub 6) OBJ File: ''
# www.blender.org
mtllib untitled.mtl
g light
v -0.240000 1.980000 0.160000
v -0.240000 1.980000 -0.220000
v 0.230000 1.980000 -0.220000
v 0.230000 1.980000 0.160000
vn 0.0000 -1.0000 0.0000
usemtl light
s off
f 2//1 4//1 1//1
f 2//1 3//1 4//1
g tallBox
v -0.530000 1.200000 0.090000
v 0.040000 1.200000 -0.090000
v -0.140000 1.200000 -0.670000
v -0.710000 1.200000 -0.490000
v -0.530000 -0.000000 0.090000
v -0.530000 1.200000 0.090000
v -0.710000 1.200000 -0.490000
v -0.710000 0.000000 -0.490000
v -0.710000 0.000000 -0.490000
v -0.710000 1.200000 -0.490000
v -0.140000 1.200000 -0.670000
v -0.140000 0.000000 -0.670000
v -0.140000 0.000000 -0.670000
v -0.140000 1.200000 -0.670000
v 0.040000 1.200000 -0.090000
v 0.040000 0.000000 -0.090000
v 0.040000 0.000000 -0.090000
v 0.040000 1.200000 -0.090000
v -0.530000 1.200000 0.090000
v -0.530000 -0.000000 0.090000
v -0.530000 -0.000000 0.090000
v 0.040000 0.000000 -0.090000
v -0.140000 0.000000 -0.670000
v -0.710000 0.000000 -0.490000
vn 0.0000 1.0000 0.0000
vn -0.9551 0.0000 0.2964
vn -0.3011 0.0000 -0.9536
vn 0.9551 0.0000 -0.2964
vn 0.3011 -0.0000 0.9536
usemtl tallBox
s off
f 6//2 8//2 5//2
f 10//3 12//3 9//3
f 14//4 16//4 13//4
f 18//5 20//5 17//5
f 22//6 24//6 21//6
f 26//2 28//2 25//2
f 6//2 7//2 8//2
f 10//3 11//3 12//3
f 14//4 15//4 16//4
f 18//5 19//5 20//5
f 22//6 23//6 24//6
f 26//2 27//2 28//2
g shortBox
v 0.530000 0.600000 0.750000
v 0.700000 0.600000 0.170000
v 0.130000 0.600000 0.000000
v -0.050000 0.600000 0.570000
v -0.050000 -0.000000 0.570000
v -0.050000 0.600000 0.570000
v 0.130000 0.600000 0.000000
v 0.130000 0.000000 0.000000
v 0.530000 -0.000000 0.750000
v 0.530000 0.600000 0.750000
v -0.050000 0.600000 0.570000
v -0.050000 -0.000000 0.570000
v 0.700000 -0.000000 0.170000
v 0.700000 0.600000 0.170000
v 0.530000 0.600000 0.750000
v 0.530000 -0.000000 0.750000
v 0.130000 0.000000 0.000000
v 0.130000 0.600000 0.000000
v 0.700000 0.600000 0.170000
v 0.700000 -0.000000 0.170000
v 0.530000 -0.000000 0.750000
v 0.700000 -0.000000 0.170000
v 0.130000 0.000000 0.000000
v -0.050000 -0.000000 0.570000
vn 0.0000 1.0000 0.0000
vn -0.9536 0.0000 -0.3011
vn -0.2964 0.0000 0.9551
vn 0.9596 -0.0000 0.2813
vn 0.2858 0.0000 -0.9583
usemtl shortBox
s off
f 29//7 31//7 32//7
f 34//8 36//8 33//8
f 38//9 40//9 37//9
f 42//10 44//10 41//10
f 46//11 48//11 45//11
f 49//7 51//7 52//7
f 29//7 30//7 31//7
f 34//8 35//8 36//8
f 38//9 39//9 40//9
f 42//10 43//10 44//10
f 46//11 47//11 48//11
f 49//7 50//7 51//7
g leftWall
v -1.010000 -0.000000 0.990000
v -0.990000 0.000000 -1.040000
v -1.020000 1.990000 -1.040000
v -1.020000 1.990000 0.990000
vn 1.0000 0.0050 0.0000
vn 0.9998 0.0151 0.0099
usemtl leftWall
s off
f 53//12 55//12 56//12
f 53//13 54//13 55//13
g rightWall
v 1.000000 0.000000 -1.040000
v 1.000000 -0.000000 0.990000
v 1.000000 1.990000 0.990000
v 1.000000 1.990000 -1.040000
vn -1.0000 -0.0000 0.0000
usemtl rightWall
s off
f 58//14 60//14 57//14
f 58//14 59//14 60//14
g backWall
v -0.990000 0.000000 -1.040000
v 1.000000 0.000000 -1.040000
v 1.000000 1.990000 -1.040000
v -1.020000 1.990000 -1.040000
vn 0.0000 -0.0000 1.0000
usemtl backWall
s off
f 61//15 63//15 64//15
f 61//15 62//15 63//15
g ceiling
v -1.020000 1.990000 0.990000
v -1.020000 1.990000 -1.040000
v 1.000000 1.990000 -1.040000
v 1.000000 1.990000 0.990000
vn 0.0000 -1.0000 0.0000
usemtl ceiling
s off
f 66//16 68//16 65//16
f 66//16 67//16 68//16
g floor
v -1.010000 -0.000000 0.990000
v 1.000000 -0.000000 0.990000
v 1.000000 0.000000 -1.040000
v -0.990000 0.000000 -1.040000
vn 0.0000 1.0000 0.0000
usemtl floor
s off
f 70//17 72//17 69//17
f 70//17 71//17 72//17
